<?xml version="1.0" ?><!DOCTYPE svg  PUBLIC '-//W3C//DTD SVG 1.1//EN'  'http://www.w3.org/Graphics/SVG/1.1/DTD/svg11.dtd'><svg viewBox="0 0 56.693 56.693" xmlns="http://www.w3.org/2000/svg" xmlns:xlink="http://www.w3.org/1999/xlink"><style>:root>svg{display:none}:root>svg:target{display:block}</style><svg viewBox="0 0 56.693 56.693" id="facebook" xmlns="http://www.w3.org/2000/svg"><path d="M40.43 21.739h-7.645v-5.014c0-1.883 1.248-2.322 2.127-2.322h5.395V6.125l-7.43-.029c-8.248 0-10.125 6.174-10.125 10.125v5.518h-4.77v8.53h4.77v24.137h10.033V30.269h6.77l.875-8.53z"/></svg><svg viewBox="0 0 56.693 56.693" id="google" xmlns="http://www.w3.org/2000/svg"><path d="M51.981 24.481c-7.717-.004-15.435-.002-23.152 0 .001 3.2-.004 6.401.002 9.6h13.407c-.518 3.068-2.34 5.873-4.926 7.6-1.625 1.093-3.492 1.802-5.416 2.139-1.938.33-3.94.373-5.872-.018a14.452 14.452 0 01-5.477-2.365 15.287 15.287 0 01-5.639-7.555c-1.048-3.079-1.056-6.505.005-9.58a15.266 15.266 0 013.57-5.8c1.986-2.033 4.567-3.486 7.348-4.082a14.57 14.57 0 017.223.294 13.333 13.333 0 015.305 3.116c1.512-1.503 3.017-3.016 4.527-4.523.792-.81 1.624-1.586 2.39-2.42-2.292-2.121-4.98-3.827-7.917-4.905-5.287-1.946-11.25-1.987-16.572-.145C14.79 7.891 9.682 12.377 6.85 18.046a24.477 24.477 0 00-2.138 6.184c-1.088 5.343-.33 11.04 2.135 15.908a24.788 24.788 0 006.684 8.215 24.487 24.487 0 008.94 4.508c4.098 1.099 8.46 1.074 12.586.135 3.728-.858 7.256-2.64 10.073-5.24 2.977-2.736 5.1-6.34 6.224-10.214 1.227-4.225 1.396-8.736.627-13.06z"/></svg><svg viewBox="0 0 56.693 56.693" id="twitter" xmlns="http://www.w3.org/2000/svg"><path d="M52.837 15.065a20.11 20.11 0 01-5.805 1.591 10.125 10.125 0 004.444-5.592 20.232 20.232 0 01-6.418 2.454 10.093 10.093 0 00-7.377-3.192c-5.581 0-10.106 4.525-10.106 10.107 0 .791.089 1.562.262 2.303-8.4-.422-15.848-4.445-20.833-10.56a10.055 10.055 0 00-1.368 5.082c0 3.506 1.784 6.6 4.496 8.412a10.078 10.078 0 01-4.578-1.265l-.001.128c0 4.896 3.484 8.98 8.108 9.91a10.162 10.162 0 01-4.565.172c1.287 4.015 5.019 6.938 9.441 7.019a20.276 20.276 0 01-12.552 4.327c-.815 0-1.62-.048-2.411-.142a28.6 28.6 0 0015.493 4.541c18.591 0 28.756-15.4 28.756-28.756 0-.438-.009-.875-.028-1.309a20.47 20.47 0 005.042-5.23z"/></svg></svg>